<svg xmlns="http://www.w3.org/2000/svg" xmlns:xlink="http://www.w3.org/1999/xlink" width="500" zoomAndPan="magnify" viewBox="0 0 375 374.999991" height="500" preserveAspectRatio="xMidYMid meet" version="1.0"><defs><g/></defs><g fill="#ffae10" fill-opacity="1"><g transform="translate(228.373919, 253.071766)"><g><path d="M 62.90625 -75.671875 C 63.1875 -75.460938 64 -75.359375 65.34375 -75.359375 C 66.695312 -75.359375 67.726562 -75.890625 68.4375 -76.953125 C 69.144531 -78.015625 69.5 -79.753906 69.5 -82.171875 L 69.5 -86 C 69.5 -88.550781 69.195312 -90.378906 68.59375 -91.484375 C 67.988281 -92.585938 66.992188 -93.140625 65.609375 -93.140625 C 64.234375 -93.140625 63.296875 -92.992188 62.796875 -92.703125 C 62.867188 -92.347656 62.90625 -91.742188 62.90625 -90.890625 Z M 117.828125 -51.40625 L 136.234375 -32.5625 C 134.960938 -21.5 131.46875 -12.984375 125.75 -7.015625 C 120.039062 -1.054688 112.148438 1.921875 102.078125 1.921875 C 94.484375 1.921875 87.882812 0.109375 82.28125 -3.515625 C 75.113281 -8.054688 69.753906 -15.289062 66.203125 -25.21875 L 62.375 -35.65625 C 59.394531 -35.726562 55.632812 -36.117188 51.09375 -36.828125 C 50.519531 -36.253906 50.234375 -35.472656 50.234375 -34.484375 C 50.234375 -32.566406 53.109375 -31.429688 58.859375 -31.078125 L 64.921875 -15.75 L 64.921875 -6.703125 C 56.765625 -0.953125 46.300781 1.921875 33.53125 1.921875 C 24.375 1.921875 17.0625 0.0390625 11.59375 -3.71875 C 6.132812 -7.476562 3.40625 -12.941406 3.40625 -20.109375 L 3.40625 -121.234375 C 3.40625 -124.359375 6.28125 -127.390625 12.03125 -130.328125 C 17.78125 -133.273438 25.300781 -135.648438 34.59375 -137.453125 C 43.882812 -139.265625 53.179688 -140.171875 62.484375 -140.171875 C 83.765625 -140.171875 100.398438 -135.8125 112.390625 -127.09375 C 125.023438 -117.9375 131.34375 -105.054688 131.34375 -88.453125 C 131.34375 -78.941406 128.660156 -70.796875 123.296875 -64.015625 C 117.941406 -57.242188 111.1875 -52.546875 103.03125 -49.921875 C 103.03125 -47.648438 104.394531 -46.515625 107.125 -46.515625 C 109.863281 -46.515625 113.429688 -48.144531 117.828125 -51.40625 Z M 117.828125 -51.40625 "/></g></g></g><path stroke-linecap="butt" transform="matrix(0.918072, 0, 0, 0.918072, 228.373919, 48.341814)" fill="none" stroke-linejoin="miter" d="M 68.521165 140.569348 C 68.827514 140.79911 69.716776 140.918245 71.184697 140.918245 C 72.652617 140.918245 73.775896 140.335332 74.546022 139.178015 C 75.320404 138.016443 75.707594 136.123038 75.707594 133.4978 L 75.707594 129.323799 C 75.707594 126.541132 75.379972 124.549865 74.720471 123.35 C 74.065225 122.154389 72.984495 121.554456 71.474026 121.554456 C 69.967812 121.554456 68.942394 121.70763 68.402029 122.018234 C 68.478617 122.405425 68.521165 123.06067 68.521165 123.988226 Z M 128.344254 167.000431 L 148.401583 187.521538 C 147.010249 199.579762 143.202165 208.855319 136.981585 215.34821 C 130.75675 221.8411 122.157713 225.087545 111.184473 225.087545 C 102.913059 225.087545 95.72663 223.117552 89.62093 219.173313 C 81.813294 214.229186 75.975649 206.344962 72.112252 195.524897 L 67.938252 184.160212 C 64.691807 184.083625 60.598648 183.658141 55.650266 182.883759 C 55.033313 183.504966 54.72271 184.355935 54.72271 185.436665 C 54.72271 187.521538 57.854274 188.759697 64.113148 189.146888 L 70.720919 205.842891 L 70.720919 215.697107 C 61.832552 221.95598 50.433828 225.087545 36.520493 225.087545 C 26.551396 225.087545 18.590585 223.03671 12.63806 218.943552 C 6.685535 214.846138 3.7114 208.893613 3.7114 201.085977 L 3.7114 90.945117 C 3.7114 87.545498 6.83871 84.24374 13.101838 81.035588 C 19.360712 77.827437 27.555539 75.236238 37.67781 73.266246 C 47.804336 71.296253 57.930861 70.30913 68.057387 70.30913 C 91.242025 70.30913 109.367655 75.061789 122.430023 84.571363 C 136.185929 94.540459 143.06601 108.568676 143.06601 126.656012 C 143.06601 137.0123 140.147188 145.883647 134.313798 153.261544 C 128.476154 160.643696 121.115276 165.766527 112.22691 168.625781 C 112.22691 171.097845 113.716105 172.336004 116.69024 172.336004 C 119.66863 172.336004 123.549046 170.55748 128.344254 167.000431 Z M 128.344254 167.000431 " stroke="#000000" stroke-width="2.226066" stroke-opacity="1" stroke-miterlimit="4"/><g fill="#ffae10" fill-opacity="1"><g transform="translate(115.507191, 246.611272)"><g><path d="M 77.734375 -110.578125 L 68.0625 -43.578125 C 68.90625 -43.296875 69.644531 -43.125 70.28125 -43.0625 C 72.613281 -42.84375 74.082031 -44.488281 74.6875 -48 L 86.515625 -124.734375 C 88.890625 -126.429688 93.078125 -127.742188 99.078125 -128.671875 C 104.785156 -129.429688 109.898438 -129.601562 114.421875 -129.1875 C 125.085938 -128.195312 132.84375 -125.015625 137.6875 -119.640625 C 142.53125 -114.273438 144.59375 -107.742188 143.875 -100.046875 C 143.46875 -95.734375 140.816406 -86.234375 135.921875 -71.546875 C 131.035156 -56.859375 124.117188 -37.03125 115.171875 -12.0625 C 111.941406 -3.3125 105.9375 2.648438 97.15625 5.828125 C 89.5 8.535156 79.628906 9.328125 67.546875 8.203125 C 59.910156 7.492188 52.78125 5.976562 46.15625 3.65625 C 39.53125 1.332031 34.316406 -1.613281 30.515625 -5.1875 C 26.078125 -18 22.03125 -35.425781 18.375 -57.46875 C 14.726562 -79.507812 12.519531 -101.679688 11.75 -123.984375 C 19.289062 -133.179688 30.300781 -137.109375 44.78125 -135.765625 C 63.4375 -134.035156 74.421875 -125.640625 77.734375 -110.578125 Z M 77.734375 -110.578125 "/></g></g></g><path stroke-linecap="butt" transform="matrix(0.914131, 0.0849674, -0.0849674, 0.914131, 129.270085, 42.278088)" fill="none" stroke-linejoin="miter" d="M 78.82921 95.237045 L 75.117482 168.858588 C 76.044778 169.088613 76.858975 169.205227 77.551208 169.204983 C 80.102499 169.207142 81.533513 167.270848 81.841194 163.409204 L 86.943701 79.005344 C 89.339379 76.91956 93.747894 75.065458 100.160381 73.439588 C 106.265552 72.047395 111.794698 71.353994 116.738951 71.355936 C 128.412919 71.351969 137.143073 74.018883 142.942125 79.355495 C 148.740783 84.68787 151.636107 91.563515 151.637357 99.990116 C 151.635334 104.703625 149.724854 115.273583 145.897444 131.700777 C 142.073877 148.123342 136.565508 170.326015 129.376182 198.304167 C 126.750371 208.120163 120.835819 215.195064 111.640212 219.51961 C 103.601326 223.232404 92.971187 225.087919 79.754032 225.085761 C 71.408713 225.088002 63.52377 224.15863 56.104226 222.305724 C 48.684289 220.448581 42.731933 217.784138 38.250607 214.303529 C 32.146236 200.854883 26.000462 182.363456 19.817522 158.828854 C 13.634583 135.294252 8.996923 111.466457 5.90533 87.353941 C 13.17112 76.610976 24.726368 71.238107 40.56723 71.239966 C 60.975589 71.236053 73.72702 79.238167 78.82921 95.237045 Z M 78.82921 95.237045 " stroke="#000000" stroke-width="2.226066" stroke-opacity="1" stroke-miterlimit="4"/><g fill="#ffae10" fill-opacity="1"><g transform="translate(6.411233, 239.791421)"><g><path d="M 65.796875 -33.875 C 66.046875 -33.644531 66.835938 -33.445312 68.171875 -33.28125 C 69.515625 -33.125 70.59375 -33.457031 71.40625 -34.28125 C 72.226562 -35.101562 72.78125 -36.679688 73.0625 -39.015625 L 73.296875 -41.015625 C 73.617188 -43.617188 73.546875 -45.519531 73.078125 -46.71875 C 72.617188 -47.914062 71.703125 -48.597656 70.328125 -48.765625 C 68.960938 -48.941406 68.015625 -48.914062 67.484375 -48.6875 C 67.515625 -48.332031 67.476562 -47.726562 67.375 -46.875 Z M 70.65625 -73.71875 C 70.90625 -73.476562 71.695312 -73.273438 73.03125 -73.109375 C 74.375 -72.953125 75.460938 -73.359375 76.296875 -74.328125 C 77.128906 -75.296875 77.691406 -76.972656 77.984375 -79.359375 L 78.0625 -80 C 78.375 -82.53125 78.296875 -84.378906 77.828125 -85.546875 C 77.359375 -86.710938 76.4375 -87.378906 75.0625 -87.546875 C 73.695312 -87.722656 72.75 -87.695312 72.21875 -87.46875 C 72.25 -87.101562 72.210938 -86.5 72.109375 -85.65625 Z M 18.234375 -121.40625 C 18.429688 -123.03125 19.992188 -124.695312 22.921875 -126.40625 C 29.085938 -130.007812 39.429688 -132.148438 53.953125 -132.828125 C 61.492188 -133.109375 69.703125 -132.707031 78.578125 -131.625 C 99.710938 -129.039062 115.203125 -123.003906 125.046875 -113.515625 C 133.679688 -105.171875 137.285156 -95.15625 135.859375 -83.46875 C 135.335938 -79.238281 134.09375 -75.1875 132.125 -71.3125 C 130.15625 -67.445312 127.671875 -64.660156 124.671875 -62.953125 C 121.171875 -65.304688 117.691406 -66.695312 114.234375 -67.125 C 112.617188 -67.320312 111.347656 -67.15625 110.421875 -66.625 C 109.503906 -66.09375 108.941406 -64.984375 108.734375 -63.296875 C 119.023438 -61.597656 126.632812 -56.878906 131.5625 -49.140625 C 135.925781 -42.097656 137.523438 -33.820312 136.359375 -24.3125 C 134.566406 -9.582031 127.09375 0.367188 113.9375 5.546875 C 101.632812 10.398438 83.859375 11.410156 60.609375 8.578125 C 44.335938 6.585938 32.460938 4.617188 24.984375 2.671875 C 17.503906 0.722656 12.300781 -2.359375 9.375 -6.578125 C 6.457031 -10.796875 5.472656 -16.78125 6.421875 -24.53125 Z M 18.234375 -121.40625 "/></g></g></g><path stroke-linecap="butt" transform="matrix(1.940304, 0.236797, -0.236797, 1.940304, 22.943376, 37.01197)" fill="none" stroke-linejoin="miter" d="M 35.481547 82.709045 C 35.627721 82.818039 36.044978 82.871803 36.735545 82.872081 C 37.424129 82.872601 37.951044 82.637172 38.314067 82.164053 C 38.677331 81.692918 38.859225 80.857381 38.858006 79.659666 L 38.858543 78.624807 C 38.857747 77.282089 38.704143 76.320399 38.395507 75.737995 C 38.087112 75.157574 37.578584 74.867323 36.871905 74.866998 C 36.163243 74.866916 35.682906 74.939629 35.428909 75.085381 C 35.465067 75.266184 35.482754 75.576074 35.481487 76.011083 Z M 35.482634 62.180149 C 35.626824 62.289385 36.044081 62.34315 36.734648 62.343427 C 37.425215 62.343705 37.951499 62.070102 38.313982 61.526587 C 38.676466 60.983071 38.857774 60.093248 38.858149 58.859101 L 38.858362 58.530921 C 38.857956 57.224393 38.703774 56.290959 38.395333 55.72665 C 38.087133 55.164324 37.579815 54.883991 36.871153 54.883909 C 36.162491 54.883826 35.682154 54.956539 35.427915 55.100307 C 35.464315 55.283094 35.48176 55.591 35.482718 56.027751 Z M 5.91476 41.215329 C 5.913477 40.380001 6.603573 39.436137 7.983066 38.383981 C 10.887625 36.169294 16.006221 34.445399 23.338614 33.210313 C 27.150926 32.594064 31.34307 32.285785 35.919014 32.284993 C 46.80847 32.284755 55.049979 34.391385 60.639091 38.601399 C 65.540349 42.305487 67.990011 47.168413 67.990786 53.195887 C 67.990882 55.374175 67.608895 57.506485 66.84681 59.592575 C 66.084966 61.680648 64.996203 63.250958 63.58052 64.303504 C 61.657171 63.324263 59.80552 62.833535 58.025809 62.833306 C 57.190239 62.832605 56.555956 62.996582 56.120733 63.323495 C 55.685511 63.650407 55.466632 64.248872 55.466322 65.120633 C 60.803829 65.338947 64.960222 67.261649 67.935986 70.892704 C 70.585766 74.195124 71.911816 78.297283 71.912153 83.199423 C 71.911856 90.785257 68.736162 96.304509 62.382604 99.753454 C 56.429247 102.984449 47.462035 104.598226 35.481452 104.598754 C 27.09648 104.599351 20.944107 104.335532 17.02259 103.809523 C 13.103058 103.283272 10.269799 102.040618 8.528524 100.078852 C 6.785508 98.119311 5.914742 95.141334 5.914727 91.149128 Z M 5.91476 41.215329 " stroke="#000000" stroke-width="1.045528" stroke-opacity="1" stroke-miterlimit="4"/></svg>